%TF.GenerationSoftware,KiCad,Pcbnew,8.0.4*%
%TF.CreationDate,2024-09-03T13:19:50-07:00*%
%TF.ProjectId,3sept24 TH LED N RESISTOR,33736570-7432-4342-9054-48204c454420,rev?*%
%TF.SameCoordinates,Original*%
%TF.FileFunction,Legend,Top*%
%TF.FilePolarity,Positive*%
%FSLAX46Y46*%
G04 Gerber Fmt 4.6, Leading zero omitted, Abs format (unit mm)*
G04 Created by KiCad (PCBNEW 8.0.4) date 2024-09-03 13:19:50*
%MOMM*%
%LPD*%
G01*
G04 APERTURE LIST*
%ADD10C,0.150000*%
%ADD11C,0.120000*%
G04 APERTURE END LIST*
D10*
X142023333Y-89534819D02*
X141690000Y-89058628D01*
X141451905Y-89534819D02*
X141451905Y-88534819D01*
X141451905Y-88534819D02*
X141832857Y-88534819D01*
X141832857Y-88534819D02*
X141928095Y-88582438D01*
X141928095Y-88582438D02*
X141975714Y-88630057D01*
X141975714Y-88630057D02*
X142023333Y-88725295D01*
X142023333Y-88725295D02*
X142023333Y-88868152D01*
X142023333Y-88868152D02*
X141975714Y-88963390D01*
X141975714Y-88963390D02*
X141928095Y-89011009D01*
X141928095Y-89011009D02*
X141832857Y-89058628D01*
X141832857Y-89058628D02*
X141451905Y-89058628D01*
X142975714Y-89534819D02*
X142404286Y-89534819D01*
X142690000Y-89534819D02*
X142690000Y-88534819D01*
X142690000Y-88534819D02*
X142594762Y-88677676D01*
X142594762Y-88677676D02*
X142499524Y-88772914D01*
X142499524Y-88772914D02*
X142404286Y-88820533D01*
X130031905Y-88494819D02*
X130031905Y-87494819D01*
X130031905Y-87494819D02*
X130270000Y-87494819D01*
X130270000Y-87494819D02*
X130412857Y-87542438D01*
X130412857Y-87542438D02*
X130508095Y-87637676D01*
X130508095Y-87637676D02*
X130555714Y-87732914D01*
X130555714Y-87732914D02*
X130603333Y-87923390D01*
X130603333Y-87923390D02*
X130603333Y-88066247D01*
X130603333Y-88066247D02*
X130555714Y-88256723D01*
X130555714Y-88256723D02*
X130508095Y-88351961D01*
X130508095Y-88351961D02*
X130412857Y-88447200D01*
X130412857Y-88447200D02*
X130270000Y-88494819D01*
X130270000Y-88494819D02*
X130031905Y-88494819D01*
X131555714Y-88494819D02*
X130984286Y-88494819D01*
X131270000Y-88494819D02*
X131270000Y-87494819D01*
X131270000Y-87494819D02*
X131174762Y-87637676D01*
X131174762Y-87637676D02*
X131079524Y-87732914D01*
X131079524Y-87732914D02*
X130984286Y-87780533D01*
X129166666Y-104894819D02*
X129166666Y-105609104D01*
X129166666Y-105609104D02*
X129119047Y-105751961D01*
X129119047Y-105751961D02*
X129023809Y-105847200D01*
X129023809Y-105847200D02*
X128880952Y-105894819D01*
X128880952Y-105894819D02*
X128785714Y-105894819D01*
X130166666Y-105894819D02*
X129595238Y-105894819D01*
X129880952Y-105894819D02*
X129880952Y-104894819D01*
X129880952Y-104894819D02*
X129785714Y-105037676D01*
X129785714Y-105037676D02*
X129690476Y-105132914D01*
X129690476Y-105132914D02*
X129595238Y-105180533D01*
X145666666Y-104894819D02*
X145666666Y-105609104D01*
X145666666Y-105609104D02*
X145619047Y-105751961D01*
X145619047Y-105751961D02*
X145523809Y-105847200D01*
X145523809Y-105847200D02*
X145380952Y-105894819D01*
X145380952Y-105894819D02*
X145285714Y-105894819D01*
X146095238Y-104990057D02*
X146142857Y-104942438D01*
X146142857Y-104942438D02*
X146238095Y-104894819D01*
X146238095Y-104894819D02*
X146476190Y-104894819D01*
X146476190Y-104894819D02*
X146571428Y-104942438D01*
X146571428Y-104942438D02*
X146619047Y-104990057D01*
X146619047Y-104990057D02*
X146666666Y-105085295D01*
X146666666Y-105085295D02*
X146666666Y-105180533D01*
X146666666Y-105180533D02*
X146619047Y-105323390D01*
X146619047Y-105323390D02*
X146047619Y-105894819D01*
X146047619Y-105894819D02*
X146666666Y-105894819D01*
D11*
%TO.C,R1*%
X139320000Y-91000000D02*
X140270000Y-91000000D01*
X140270000Y-90080000D02*
X140270000Y-91920000D01*
X140270000Y-91920000D02*
X144110000Y-91920000D01*
X144110000Y-90080000D02*
X140270000Y-90080000D01*
X144110000Y-91920000D02*
X144110000Y-90080000D01*
X145060000Y-91000000D02*
X144110000Y-91000000D01*
%TO.C,D1*%
X129210000Y-89764000D02*
X129210000Y-89920000D01*
X129210000Y-92080000D02*
X129210000Y-92236000D01*
X129210000Y-89764484D02*
G75*
G02*
X132442335Y-89921392I1560000J-1235516D01*
G01*
X129729039Y-89920000D02*
G75*
G02*
X131811130Y-89920163I1040961J-1080000D01*
G01*
X131811130Y-92079837D02*
G75*
G02*
X129729039Y-92080000I-1041130J1079837D01*
G01*
X132442335Y-92078608D02*
G75*
G02*
X129210000Y-92235516I-1672335J1078608D01*
G01*
%TO.C,J1*%
X128805000Y-106315000D02*
X129500000Y-106315000D01*
X128805000Y-107000000D02*
X128805000Y-106315000D01*
X128805000Y-107685000D02*
X128805000Y-107560000D01*
X128805000Y-107685000D02*
X128891724Y-107685000D01*
X128805000Y-107685000D02*
X130195000Y-107685000D01*
X130108276Y-107685000D02*
X130195000Y-107685000D01*
X130195000Y-107685000D02*
X130195000Y-107560000D01*
%TO.C,J2*%
X145305000Y-106315000D02*
X146000000Y-106315000D01*
X145305000Y-107000000D02*
X145305000Y-106315000D01*
X145305000Y-107685000D02*
X145305000Y-107560000D01*
X145305000Y-107685000D02*
X145391724Y-107685000D01*
X145305000Y-107685000D02*
X146695000Y-107685000D01*
X146608276Y-107685000D02*
X146695000Y-107685000D01*
X146695000Y-107685000D02*
X146695000Y-107560000D01*
%TD*%
M02*
