%TF.GenerationSoftware,KiCad,Pcbnew,8.0.4*%
%TF.CreationDate,2024-09-08T15:37:25-07:00*%
%TF.ProjectId,8sept24 LED N RESISTOR SMD,38736570-7432-4342-904c-4544204e2052,rev?*%
%TF.SameCoordinates,Original*%
%TF.FileFunction,Drillmap*%
%TF.FilePolarity,Positive*%
%FSLAX45Y45*%
G04 Gerber Fmt 4.5, Leading zero omitted, Abs format (unit mm)*
G04 Created by KiCad (PCBNEW 8.0.4) date 2024-09-08 15:37:25*
%MOMM*%
%LPD*%
G01*
G04 APERTURE LIST*
%ADD10C,0.050000*%
%ADD11C,0.200000*%
%ADD12C,0.100000*%
G04 APERTURE END LIST*
D10*
X12650000Y-6900000D02*
X15750000Y-6900000D01*
X15750000Y-10000000D01*
X12650000Y-10000000D01*
X12650000Y-6900000D01*
D11*
D12*
X13825000Y-8675000D02*
X13875000Y-8725000D01*
X13875000Y-8675000D02*
X13825000Y-8725000D01*
X14575000Y-8725000D02*
X14625000Y-8775000D01*
X14625000Y-8725000D02*
X14575000Y-8775000D01*
D11*
X12908277Y-10313984D02*
X12908277Y-10113984D01*
X12908277Y-10113984D02*
X12955896Y-10113984D01*
X12955896Y-10113984D02*
X12984467Y-10123508D01*
X12984467Y-10123508D02*
X13003515Y-10142555D01*
X13003515Y-10142555D02*
X13013039Y-10161603D01*
X13013039Y-10161603D02*
X13022562Y-10199698D01*
X13022562Y-10199698D02*
X13022562Y-10228270D01*
X13022562Y-10228270D02*
X13013039Y-10266365D01*
X13013039Y-10266365D02*
X13003515Y-10285412D01*
X13003515Y-10285412D02*
X12984467Y-10304460D01*
X12984467Y-10304460D02*
X12955896Y-10313984D01*
X12955896Y-10313984D02*
X12908277Y-10313984D01*
X13108277Y-10313984D02*
X13108277Y-10180650D01*
X13108277Y-10218746D02*
X13117801Y-10199698D01*
X13117801Y-10199698D02*
X13127324Y-10190174D01*
X13127324Y-10190174D02*
X13146372Y-10180650D01*
X13146372Y-10180650D02*
X13165420Y-10180650D01*
X13232086Y-10313984D02*
X13232086Y-10180650D01*
X13232086Y-10113984D02*
X13222562Y-10123508D01*
X13222562Y-10123508D02*
X13232086Y-10133031D01*
X13232086Y-10133031D02*
X13241610Y-10123508D01*
X13241610Y-10123508D02*
X13232086Y-10113984D01*
X13232086Y-10113984D02*
X13232086Y-10133031D01*
X13355896Y-10313984D02*
X13336848Y-10304460D01*
X13336848Y-10304460D02*
X13327324Y-10285412D01*
X13327324Y-10285412D02*
X13327324Y-10113984D01*
X13460658Y-10313984D02*
X13441610Y-10304460D01*
X13441610Y-10304460D02*
X13432086Y-10285412D01*
X13432086Y-10285412D02*
X13432086Y-10113984D01*
X13689229Y-10313984D02*
X13689229Y-10113984D01*
X13689229Y-10113984D02*
X13755896Y-10256841D01*
X13755896Y-10256841D02*
X13822562Y-10113984D01*
X13822562Y-10113984D02*
X13822562Y-10313984D01*
X14003515Y-10313984D02*
X14003515Y-10209222D01*
X14003515Y-10209222D02*
X13993991Y-10190174D01*
X13993991Y-10190174D02*
X13974943Y-10180650D01*
X13974943Y-10180650D02*
X13936848Y-10180650D01*
X13936848Y-10180650D02*
X13917801Y-10190174D01*
X14003515Y-10304460D02*
X13984467Y-10313984D01*
X13984467Y-10313984D02*
X13936848Y-10313984D01*
X13936848Y-10313984D02*
X13917801Y-10304460D01*
X13917801Y-10304460D02*
X13908277Y-10285412D01*
X13908277Y-10285412D02*
X13908277Y-10266365D01*
X13908277Y-10266365D02*
X13917801Y-10247317D01*
X13917801Y-10247317D02*
X13936848Y-10237793D01*
X13936848Y-10237793D02*
X13984467Y-10237793D01*
X13984467Y-10237793D02*
X14003515Y-10228270D01*
X14098753Y-10180650D02*
X14098753Y-10380650D01*
X14098753Y-10190174D02*
X14117801Y-10180650D01*
X14117801Y-10180650D02*
X14155896Y-10180650D01*
X14155896Y-10180650D02*
X14174943Y-10190174D01*
X14174943Y-10190174D02*
X14184467Y-10199698D01*
X14184467Y-10199698D02*
X14193991Y-10218746D01*
X14193991Y-10218746D02*
X14193991Y-10275889D01*
X14193991Y-10275889D02*
X14184467Y-10294936D01*
X14184467Y-10294936D02*
X14174943Y-10304460D01*
X14174943Y-10304460D02*
X14155896Y-10313984D01*
X14155896Y-10313984D02*
X14117801Y-10313984D01*
X14117801Y-10313984D02*
X14098753Y-10304460D01*
X14279705Y-10294936D02*
X14289229Y-10304460D01*
X14289229Y-10304460D02*
X14279705Y-10313984D01*
X14279705Y-10313984D02*
X14270182Y-10304460D01*
X14270182Y-10304460D02*
X14279705Y-10294936D01*
X14279705Y-10294936D02*
X14279705Y-10313984D01*
X14279705Y-10190174D02*
X14289229Y-10199698D01*
X14289229Y-10199698D02*
X14279705Y-10209222D01*
X14279705Y-10209222D02*
X14270182Y-10199698D01*
X14270182Y-10199698D02*
X14279705Y-10190174D01*
X14279705Y-10190174D02*
X14279705Y-10209222D01*
D12*
X12597500Y-10617500D02*
X12647500Y-10667500D01*
X12647500Y-10617500D02*
X12597500Y-10667500D01*
D11*
X12946372Y-10533984D02*
X12965420Y-10533984D01*
X12965420Y-10533984D02*
X12984467Y-10543508D01*
X12984467Y-10543508D02*
X12993991Y-10553031D01*
X12993991Y-10553031D02*
X13003515Y-10572079D01*
X13003515Y-10572079D02*
X13013039Y-10610174D01*
X13013039Y-10610174D02*
X13013039Y-10657793D01*
X13013039Y-10657793D02*
X13003515Y-10695889D01*
X13003515Y-10695889D02*
X12993991Y-10714936D01*
X12993991Y-10714936D02*
X12984467Y-10724460D01*
X12984467Y-10724460D02*
X12965420Y-10733984D01*
X12965420Y-10733984D02*
X12946372Y-10733984D01*
X12946372Y-10733984D02*
X12927324Y-10724460D01*
X12927324Y-10724460D02*
X12917801Y-10714936D01*
X12917801Y-10714936D02*
X12908277Y-10695889D01*
X12908277Y-10695889D02*
X12898753Y-10657793D01*
X12898753Y-10657793D02*
X12898753Y-10610174D01*
X12898753Y-10610174D02*
X12908277Y-10572079D01*
X12908277Y-10572079D02*
X12917801Y-10553031D01*
X12917801Y-10553031D02*
X12927324Y-10543508D01*
X12927324Y-10543508D02*
X12946372Y-10533984D01*
X13098753Y-10714936D02*
X13108277Y-10724460D01*
X13108277Y-10724460D02*
X13098753Y-10733984D01*
X13098753Y-10733984D02*
X13089229Y-10724460D01*
X13089229Y-10724460D02*
X13098753Y-10714936D01*
X13098753Y-10714936D02*
X13098753Y-10733984D01*
X13289229Y-10533984D02*
X13193991Y-10533984D01*
X13193991Y-10533984D02*
X13184467Y-10629222D01*
X13184467Y-10629222D02*
X13193991Y-10619698D01*
X13193991Y-10619698D02*
X13213039Y-10610174D01*
X13213039Y-10610174D02*
X13260658Y-10610174D01*
X13260658Y-10610174D02*
X13279705Y-10619698D01*
X13279705Y-10619698D02*
X13289229Y-10629222D01*
X13289229Y-10629222D02*
X13298753Y-10648270D01*
X13298753Y-10648270D02*
X13298753Y-10695889D01*
X13298753Y-10695889D02*
X13289229Y-10714936D01*
X13289229Y-10714936D02*
X13279705Y-10724460D01*
X13279705Y-10724460D02*
X13260658Y-10733984D01*
X13260658Y-10733984D02*
X13213039Y-10733984D01*
X13213039Y-10733984D02*
X13193991Y-10724460D01*
X13193991Y-10724460D02*
X13184467Y-10714936D01*
X13422562Y-10533984D02*
X13441610Y-10533984D01*
X13441610Y-10533984D02*
X13460658Y-10543508D01*
X13460658Y-10543508D02*
X13470182Y-10553031D01*
X13470182Y-10553031D02*
X13479705Y-10572079D01*
X13479705Y-10572079D02*
X13489229Y-10610174D01*
X13489229Y-10610174D02*
X13489229Y-10657793D01*
X13489229Y-10657793D02*
X13479705Y-10695889D01*
X13479705Y-10695889D02*
X13470182Y-10714936D01*
X13470182Y-10714936D02*
X13460658Y-10724460D01*
X13460658Y-10724460D02*
X13441610Y-10733984D01*
X13441610Y-10733984D02*
X13422562Y-10733984D01*
X13422562Y-10733984D02*
X13403515Y-10724460D01*
X13403515Y-10724460D02*
X13393991Y-10714936D01*
X13393991Y-10714936D02*
X13384467Y-10695889D01*
X13384467Y-10695889D02*
X13374943Y-10657793D01*
X13374943Y-10657793D02*
X13374943Y-10610174D01*
X13374943Y-10610174D02*
X13384467Y-10572079D01*
X13384467Y-10572079D02*
X13393991Y-10553031D01*
X13393991Y-10553031D02*
X13403515Y-10543508D01*
X13403515Y-10543508D02*
X13422562Y-10533984D01*
X13613039Y-10533984D02*
X13632086Y-10533984D01*
X13632086Y-10533984D02*
X13651134Y-10543508D01*
X13651134Y-10543508D02*
X13660658Y-10553031D01*
X13660658Y-10553031D02*
X13670182Y-10572079D01*
X13670182Y-10572079D02*
X13679705Y-10610174D01*
X13679705Y-10610174D02*
X13679705Y-10657793D01*
X13679705Y-10657793D02*
X13670182Y-10695889D01*
X13670182Y-10695889D02*
X13660658Y-10714936D01*
X13660658Y-10714936D02*
X13651134Y-10724460D01*
X13651134Y-10724460D02*
X13632086Y-10733984D01*
X13632086Y-10733984D02*
X13613039Y-10733984D01*
X13613039Y-10733984D02*
X13593991Y-10724460D01*
X13593991Y-10724460D02*
X13584467Y-10714936D01*
X13584467Y-10714936D02*
X13574943Y-10695889D01*
X13574943Y-10695889D02*
X13565420Y-10657793D01*
X13565420Y-10657793D02*
X13565420Y-10610174D01*
X13565420Y-10610174D02*
X13574943Y-10572079D01*
X13574943Y-10572079D02*
X13584467Y-10553031D01*
X13584467Y-10553031D02*
X13593991Y-10543508D01*
X13593991Y-10543508D02*
X13613039Y-10533984D01*
X13765420Y-10733984D02*
X13765420Y-10600650D01*
X13765420Y-10619698D02*
X13774943Y-10610174D01*
X13774943Y-10610174D02*
X13793991Y-10600650D01*
X13793991Y-10600650D02*
X13822563Y-10600650D01*
X13822563Y-10600650D02*
X13841610Y-10610174D01*
X13841610Y-10610174D02*
X13851134Y-10629222D01*
X13851134Y-10629222D02*
X13851134Y-10733984D01*
X13851134Y-10629222D02*
X13860658Y-10610174D01*
X13860658Y-10610174D02*
X13879705Y-10600650D01*
X13879705Y-10600650D02*
X13908277Y-10600650D01*
X13908277Y-10600650D02*
X13927324Y-10610174D01*
X13927324Y-10610174D02*
X13936848Y-10629222D01*
X13936848Y-10629222D02*
X13936848Y-10733984D01*
X14032086Y-10733984D02*
X14032086Y-10600650D01*
X14032086Y-10619698D02*
X14041610Y-10610174D01*
X14041610Y-10610174D02*
X14060658Y-10600650D01*
X14060658Y-10600650D02*
X14089229Y-10600650D01*
X14089229Y-10600650D02*
X14108277Y-10610174D01*
X14108277Y-10610174D02*
X14117801Y-10629222D01*
X14117801Y-10629222D02*
X14117801Y-10733984D01*
X14117801Y-10629222D02*
X14127324Y-10610174D01*
X14127324Y-10610174D02*
X14146372Y-10600650D01*
X14146372Y-10600650D02*
X14174943Y-10600650D01*
X14174943Y-10600650D02*
X14193991Y-10610174D01*
X14193991Y-10610174D02*
X14203515Y-10629222D01*
X14203515Y-10629222D02*
X14203515Y-10733984D01*
X14593991Y-10524460D02*
X14422563Y-10781603D01*
X14851134Y-10533984D02*
X14870182Y-10533984D01*
X14870182Y-10533984D02*
X14889229Y-10543508D01*
X14889229Y-10543508D02*
X14898753Y-10553031D01*
X14898753Y-10553031D02*
X14908277Y-10572079D01*
X14908277Y-10572079D02*
X14917801Y-10610174D01*
X14917801Y-10610174D02*
X14917801Y-10657793D01*
X14917801Y-10657793D02*
X14908277Y-10695889D01*
X14908277Y-10695889D02*
X14898753Y-10714936D01*
X14898753Y-10714936D02*
X14889229Y-10724460D01*
X14889229Y-10724460D02*
X14870182Y-10733984D01*
X14870182Y-10733984D02*
X14851134Y-10733984D01*
X14851134Y-10733984D02*
X14832086Y-10724460D01*
X14832086Y-10724460D02*
X14822563Y-10714936D01*
X14822563Y-10714936D02*
X14813039Y-10695889D01*
X14813039Y-10695889D02*
X14803515Y-10657793D01*
X14803515Y-10657793D02*
X14803515Y-10610174D01*
X14803515Y-10610174D02*
X14813039Y-10572079D01*
X14813039Y-10572079D02*
X14822563Y-10553031D01*
X14822563Y-10553031D02*
X14832086Y-10543508D01*
X14832086Y-10543508D02*
X14851134Y-10533984D01*
X15003515Y-10714936D02*
X15013039Y-10724460D01*
X15013039Y-10724460D02*
X15003515Y-10733984D01*
X15003515Y-10733984D02*
X14993991Y-10724460D01*
X14993991Y-10724460D02*
X15003515Y-10714936D01*
X15003515Y-10714936D02*
X15003515Y-10733984D01*
X15136848Y-10533984D02*
X15155896Y-10533984D01*
X15155896Y-10533984D02*
X15174944Y-10543508D01*
X15174944Y-10543508D02*
X15184467Y-10553031D01*
X15184467Y-10553031D02*
X15193991Y-10572079D01*
X15193991Y-10572079D02*
X15203515Y-10610174D01*
X15203515Y-10610174D02*
X15203515Y-10657793D01*
X15203515Y-10657793D02*
X15193991Y-10695889D01*
X15193991Y-10695889D02*
X15184467Y-10714936D01*
X15184467Y-10714936D02*
X15174944Y-10724460D01*
X15174944Y-10724460D02*
X15155896Y-10733984D01*
X15155896Y-10733984D02*
X15136848Y-10733984D01*
X15136848Y-10733984D02*
X15117801Y-10724460D01*
X15117801Y-10724460D02*
X15108277Y-10714936D01*
X15108277Y-10714936D02*
X15098753Y-10695889D01*
X15098753Y-10695889D02*
X15089229Y-10657793D01*
X15089229Y-10657793D02*
X15089229Y-10610174D01*
X15089229Y-10610174D02*
X15098753Y-10572079D01*
X15098753Y-10572079D02*
X15108277Y-10553031D01*
X15108277Y-10553031D02*
X15117801Y-10543508D01*
X15117801Y-10543508D02*
X15136848Y-10533984D01*
X15393991Y-10733984D02*
X15279706Y-10733984D01*
X15336848Y-10733984D02*
X15336848Y-10533984D01*
X15336848Y-10533984D02*
X15317801Y-10562555D01*
X15317801Y-10562555D02*
X15298753Y-10581603D01*
X15298753Y-10581603D02*
X15279706Y-10591127D01*
X15489229Y-10733984D02*
X15527325Y-10733984D01*
X15527325Y-10733984D02*
X15546372Y-10724460D01*
X15546372Y-10724460D02*
X15555896Y-10714936D01*
X15555896Y-10714936D02*
X15574944Y-10686365D01*
X15574944Y-10686365D02*
X15584467Y-10648270D01*
X15584467Y-10648270D02*
X15584467Y-10572079D01*
X15584467Y-10572079D02*
X15574944Y-10553031D01*
X15574944Y-10553031D02*
X15565420Y-10543508D01*
X15565420Y-10543508D02*
X15546372Y-10533984D01*
X15546372Y-10533984D02*
X15508277Y-10533984D01*
X15508277Y-10533984D02*
X15489229Y-10543508D01*
X15489229Y-10543508D02*
X15479706Y-10553031D01*
X15479706Y-10553031D02*
X15470182Y-10572079D01*
X15470182Y-10572079D02*
X15470182Y-10619698D01*
X15470182Y-10619698D02*
X15479706Y-10638746D01*
X15479706Y-10638746D02*
X15489229Y-10648270D01*
X15489229Y-10648270D02*
X15508277Y-10657793D01*
X15508277Y-10657793D02*
X15546372Y-10657793D01*
X15546372Y-10657793D02*
X15565420Y-10648270D01*
X15565420Y-10648270D02*
X15574944Y-10638746D01*
X15574944Y-10638746D02*
X15584467Y-10619698D01*
X15651134Y-10533984D02*
X15784467Y-10533984D01*
X15784467Y-10533984D02*
X15698753Y-10733984D01*
X15851134Y-10533984D02*
X15851134Y-10572079D01*
X15927325Y-10533984D02*
X15927325Y-10572079D01*
X16222563Y-10810174D02*
X16213039Y-10800650D01*
X16213039Y-10800650D02*
X16193991Y-10772079D01*
X16193991Y-10772079D02*
X16184468Y-10753031D01*
X16184468Y-10753031D02*
X16174944Y-10724460D01*
X16174944Y-10724460D02*
X16165420Y-10676841D01*
X16165420Y-10676841D02*
X16165420Y-10638746D01*
X16165420Y-10638746D02*
X16174944Y-10591127D01*
X16174944Y-10591127D02*
X16184468Y-10562555D01*
X16184468Y-10562555D02*
X16193991Y-10543508D01*
X16193991Y-10543508D02*
X16213039Y-10514936D01*
X16213039Y-10514936D02*
X16222563Y-10505412D01*
X16289229Y-10553031D02*
X16298753Y-10543508D01*
X16298753Y-10543508D02*
X16317801Y-10533984D01*
X16317801Y-10533984D02*
X16365420Y-10533984D01*
X16365420Y-10533984D02*
X16384468Y-10543508D01*
X16384468Y-10543508D02*
X16393991Y-10553031D01*
X16393991Y-10553031D02*
X16403515Y-10572079D01*
X16403515Y-10572079D02*
X16403515Y-10591127D01*
X16403515Y-10591127D02*
X16393991Y-10619698D01*
X16393991Y-10619698D02*
X16279706Y-10733984D01*
X16279706Y-10733984D02*
X16403515Y-10733984D01*
X16641610Y-10733984D02*
X16641610Y-10533984D01*
X16727325Y-10733984D02*
X16727325Y-10629222D01*
X16727325Y-10629222D02*
X16717801Y-10610174D01*
X16717801Y-10610174D02*
X16698753Y-10600650D01*
X16698753Y-10600650D02*
X16670182Y-10600650D01*
X16670182Y-10600650D02*
X16651134Y-10610174D01*
X16651134Y-10610174D02*
X16641610Y-10619698D01*
X16851134Y-10733984D02*
X16832087Y-10724460D01*
X16832087Y-10724460D02*
X16822563Y-10714936D01*
X16822563Y-10714936D02*
X16813039Y-10695889D01*
X16813039Y-10695889D02*
X16813039Y-10638746D01*
X16813039Y-10638746D02*
X16822563Y-10619698D01*
X16822563Y-10619698D02*
X16832087Y-10610174D01*
X16832087Y-10610174D02*
X16851134Y-10600650D01*
X16851134Y-10600650D02*
X16879706Y-10600650D01*
X16879706Y-10600650D02*
X16898753Y-10610174D01*
X16898753Y-10610174D02*
X16908277Y-10619698D01*
X16908277Y-10619698D02*
X16917801Y-10638746D01*
X16917801Y-10638746D02*
X16917801Y-10695889D01*
X16917801Y-10695889D02*
X16908277Y-10714936D01*
X16908277Y-10714936D02*
X16898753Y-10724460D01*
X16898753Y-10724460D02*
X16879706Y-10733984D01*
X16879706Y-10733984D02*
X16851134Y-10733984D01*
X17032087Y-10733984D02*
X17013039Y-10724460D01*
X17013039Y-10724460D02*
X17003515Y-10705412D01*
X17003515Y-10705412D02*
X17003515Y-10533984D01*
X17184468Y-10724460D02*
X17165420Y-10733984D01*
X17165420Y-10733984D02*
X17127325Y-10733984D01*
X17127325Y-10733984D02*
X17108277Y-10724460D01*
X17108277Y-10724460D02*
X17098753Y-10705412D01*
X17098753Y-10705412D02*
X17098753Y-10629222D01*
X17098753Y-10629222D02*
X17108277Y-10610174D01*
X17108277Y-10610174D02*
X17127325Y-10600650D01*
X17127325Y-10600650D02*
X17165420Y-10600650D01*
X17165420Y-10600650D02*
X17184468Y-10610174D01*
X17184468Y-10610174D02*
X17193992Y-10629222D01*
X17193992Y-10629222D02*
X17193992Y-10648270D01*
X17193992Y-10648270D02*
X17098753Y-10667317D01*
X17270182Y-10724460D02*
X17289230Y-10733984D01*
X17289230Y-10733984D02*
X17327325Y-10733984D01*
X17327325Y-10733984D02*
X17346373Y-10724460D01*
X17346373Y-10724460D02*
X17355896Y-10705412D01*
X17355896Y-10705412D02*
X17355896Y-10695889D01*
X17355896Y-10695889D02*
X17346373Y-10676841D01*
X17346373Y-10676841D02*
X17327325Y-10667317D01*
X17327325Y-10667317D02*
X17298753Y-10667317D01*
X17298753Y-10667317D02*
X17279706Y-10657793D01*
X17279706Y-10657793D02*
X17270182Y-10638746D01*
X17270182Y-10638746D02*
X17270182Y-10629222D01*
X17270182Y-10629222D02*
X17279706Y-10610174D01*
X17279706Y-10610174D02*
X17298753Y-10600650D01*
X17298753Y-10600650D02*
X17327325Y-10600650D01*
X17327325Y-10600650D02*
X17346373Y-10610174D01*
X17422563Y-10810174D02*
X17432087Y-10800650D01*
X17432087Y-10800650D02*
X17451134Y-10772079D01*
X17451134Y-10772079D02*
X17460658Y-10753031D01*
X17460658Y-10753031D02*
X17470182Y-10724460D01*
X17470182Y-10724460D02*
X17479706Y-10676841D01*
X17479706Y-10676841D02*
X17479706Y-10638746D01*
X17479706Y-10638746D02*
X17470182Y-10591127D01*
X17470182Y-10591127D02*
X17460658Y-10562555D01*
X17460658Y-10562555D02*
X17451134Y-10543508D01*
X17451134Y-10543508D02*
X17432087Y-10514936D01*
X17432087Y-10514936D02*
X17422563Y-10505412D01*
M02*
